<svg width="54" height="54" viewBox="0 0 54 54" fill="none" xmlns="http://www.w3.org/2000/svg">
<path d="M26.9998 0.333282C12.2798 0.333282 0.333138 12.28 0.333138 27C0.333138 41.72 12.2798 53.6666 26.9998 53.6666C41.7198 53.6666 53.6665 41.72 53.6665 27C53.6665 12.28 41.7198 0.333282 26.9998 0.333282ZM38.9998 33H30.8665L36.1731 40.52C36.8131 41.4266 36.5998 42.68 35.6932 43.2933C35.3465 43.5333 34.9464 43.6666 34.5464 43.6666C33.9064 43.6666 33.2931 43.3733 32.9198 42.8133L26.7865 34.1199L20.6531 42.8133C20.2531 43.3733 19.6398 43.6666 19.0265 43.6666C18.6265 43.6666 18.2264 43.56 17.8798 43.2933C16.9731 42.6533 16.7598 41.4 17.3998 40.52L22.7065 33H15.0531C13.9598 33 13.0531 32.0933 13.0531 31C13.0531 29.9066 13.9598 29 15.0531 29H39.0531C40.1464 29 41.0531 29.9066 41.0531 31C41.0531 32.0933 40.0931 33 38.9998 33ZM38.9998 25H14.9998C13.9065 25 12.9998 24.0933 12.9998 23C12.9998 21.9066 13.9065 21 14.9998 21H22.6531L17.3465 13.4799C16.7065 12.5733 16.9198 11.3199 17.8265 10.7066C18.7331 10.0666 19.9865 10.28 20.5998 11.1866L26.7331 19.88L32.8665 11.1866C33.5065 10.28 34.7598 10.0666 35.6398 10.7066C36.5464 11.3466 36.7598 12.5999 36.1198 13.4799L30.8131 21H38.9465C40.0398 21 40.9465 21.9066 40.9465 23C40.9465 24.0933 40.0931 25 38.9998 25Z" fill="#647B64"/>
</svg>
